//-------------------------------------------------------------------
<region>
sample=/04/00/sample-001.wav
lokey=103
hikey=103
pitch_keycenter=103
hirand=0.25
seq_length=2 seq_position=1

<region>
sample=/04/00/sample-002.wav
lokey=103
hikey=103
pitch_keycenter=103
lorand=0.25
hirand=0.5
seq_length=2 seq_position=1

<region>
sample=/04/00/sample-003.wav
lokey=103
hikey=103
pitch_keycenter=103
lorand=0.5
hirand=0.75
seq_length=2 seq_position=1

<region>
sample=/04/00/sample-004.wav
lokey=103
hikey=103
pitch_keycenter=103
lorand=0.75
seq_length=2 seq_position=1


//-------------------------------------------------------------------
<region>
sample=/04/00/sample-005.wav
lokey=103
hikey=103
pitch_keycenter=103
hirand=0.25
seq_length=2 seq_position=2

<region>
sample=/04/00/sample-006.wav
lokey=103
hikey=103
pitch_keycenter=103
lorand=0.25
hirand=0.5
seq_length=2 seq_position=2

<region>
sample=/04/00/sample-007.wav
lokey=103
hikey=103
pitch_keycenter=103
lorand=0.5
hirand=0.75
seq_length=2 seq_position=2

<region>
sample=/04/00/sample-008.wav
lokey=103
hikey=103
pitch_keycenter=103
lorand=0.75
seq_length=2 seq_position=2